<svg width="36" height="30" viewBox="0 0 36 30" fill="none" xmlns="http://www.w3.org/2000/svg">
<path fill-rule="evenodd" clip-rule="evenodd" d="M0.0488409 13.1863C0.0488409 31.6652 -1.95985 29.9585 19.7864 29.9585H35.7692V19.454C35.7692 11.4546 35.6778 11.7392 35.0103 11.4882C32.9858 11.4882 32.7608 11.7383 32.6263 19.454L32.4987 26.7811H18.4541C1.34173 26.7811 3.29615 28.373 3.29615 14.4346V3.17742H17.3524C32.2074 3.17742 32.5219 3.22145 32.5219 5.29176C32.5219 6.02438 31.9601 6.62582 30.5503 7.40248C17.0684 14.8272 19.4673 14.524 12.5389 9.67887C6.7035 5.59816 5.59849 5.27814 5.24639 7.56815C5.09423 8.55769 17.113 17.277 18.5474 17.2175C18.9616 17.2003 22.954 15.203 27.419 12.7787L35.5373 8.37113L35.6816 6.16192C36.0749 0.131636 35.657 0 16.098 0H0.0488409V13.1863Z" fill="#FF6A00"/>
</svg>
